<svg xmlns="http://www.w3.org/2000/svg" xmlns:svgjs="http://svgjs.dev/svgjs" xmlns:xlink="http://www.w3.org/1999/xlink" width="1500" height="1500" version="1.1" viewBox="0 0 1500 1500"><g transform="matrix(1,0,0,1,-0.21332335329316265,-0.21332335329350371)"><svg xmlns="http://www.w3.org/2000/svg" xmlns:xlink="http://www.w3.org/1999/xlink" width="1500" height="1500" data-background-color="#000000" preserveAspectRatio="xMidYMid meet" viewBox="0 0 334 334"><g id="tight-bounds" transform="matrix(1,0,0,1,0.04749999999998522,0.04750000000001364)"><svg width="333.905" height="333.905" viewBox="0 0 333.905 333.905"><rect width="333.905" height="333.905" fill="url(#becc9664-c049-4e39-8d81-7029ed6bec15)" data-fill-palette-color="tertiary" mask="url(#728f2555-5fe9-486c-b95b-d8b88fd7eddf)"/><g><svg/></g><g><svg width="333.905" height="333.905" viewBox="0 0 333.905 333.905"><g><path fill="url(#becc9664-c049-4e39-8d81-7029ed6bec15)" stroke="transparent" d="M0 166.952c0-92.205 74.747-166.952 166.952-166.952 92.205 0 166.952 74.747 166.953 166.952 0 92.205-74.747 166.952-166.953 166.953-92.205 0-166.952-74.747-166.952-166.953zM166.952 316.63c82.665 0 149.677-67.013 149.678-149.678 0-82.665-67.013-149.677-149.678-149.677-82.665 0-149.677 67.013-149.677 149.677 0 82.665 67.013 149.677 149.677 149.678z" data-fill-palette-color="tertiary"/><ellipse cx="166.952" cy="166.952" fill="url(#becc9664-c049-4e39-8d81-7029ed6bec15)" fill-opacity="1" stroke="transparent" stroke-width="0" data-fill-palette-color="tertiary" rx="160.274" ry="160.274"/></g><g transform="matrix(1,0,0,1,78.94293486373108,71.17305217166896)"><svg width="176.019" height="191.558" viewBox="0 0 176.019 191.558"><g><svg width="176.019" height="191.558" viewBox="0 0 176.019 191.558"><g><svg width="176.019" height="191.558" viewBox="0 0 176.019 191.558"><g id="textblocktransform"><svg id="textblock" width="176.019" height="191.558" viewBox="0 0 176.019 191.558"><g><svg width="176.019" height="191.558" viewBox="0 0 176.019 191.558"><g transform="matrix(1,0,0,1,0,0)"><svg width="176.019" height="191.558" data-palette-color="#000000" viewBox="1.05 -36.2 33.45 36.4"><path id="text-0" fill="#000" d="M15.25 0.2L15.25 0.2Q13.8 0.25 12.35-0.05 10.9-0.35 9.9-1.3L9.9-1.3Q9.95-2.55 9.88-5 9.8-7.45 9.6-10.48 9.4-13.5 8.97-16.6 8.55-19.7 7.88-22.33 7.2-24.95 6.25-26.55 5.3-28.15 4-28.15L4-28.15Q2.85-28.15 1.4-26.9L1.4-26.9 1.05-27.2Q2.45-31.5 4.73-33.75 7-36 9.45-36L9.45-36Q11.6-36 13.05-34.5 14.5-33 15.38-30.48 16.25-27.95 16.63-24.83 17-21.7 17-18.45L17-18.45Q17-15.85 16.8-13.35 16.6-10.85 16.25-8.75L16.25-8.75Q18.9-12.1 20.7-16.07 22.5-20.05 23.45-23.98 24.4-27.9 24.4-31.05L24.4-31.05Q24.4-31.65 24.35-32.27 24.3-32.9 24.2-33.4L24.2-33.4Q25.25-34.75 26.9-35.48 28.55-36.2 30.2-36.2L30.2-36.2Q31.8-36.2 33-35.52 34.2-34.85 34.5-33.4L34.5-33.4Q33.85-28.65 31.93-23.9 30-19.15 27.25-14.73 24.5-10.3 21.38-6.5 18.25-2.7 15.25 0.2Z" class="wordmark-text-0" data-fill-palette-color="quaternary" opacity="1" transform="matrix(1,0,0,1,0,0)"/></svg></g></svg></g></svg></g></svg></g></svg></g></svg></g></svg></g><mask id="728f2555-5fe9-486c-b95b-d8b88fd7eddf"><g id="SvgjsG5780"><svg width="333.905" height="333.905" viewBox="0 0 333.905 333.905"><g><svg/></g><g><svg width="333.905" height="333.905" viewBox="0 0 333.905 333.905"><g><path fill="#fff" stroke="transparent" d="M0 166.952c0-92.205 74.747-166.952 166.952-166.952 92.205 0 166.952 74.747 166.953 166.952 0 92.205-74.747 166.952-166.953 166.953-92.205 0-166.952-74.747-166.952-166.953zM166.952 316.63c82.665 0 149.677-67.013 149.678-149.678 0-82.665-67.013-149.677-149.678-149.677-82.665 0-149.677 67.013-149.677 149.677 0 82.665 67.013 149.677 149.677 149.678z"/><ellipse cx="166.952" cy="166.952" fill="#fff" fill-opacity="1" stroke="transparent" stroke-width="0" rx="160.274" ry="160.274"/></g><g transform="matrix(1,0,0,1,78.94293486373108,71.17305217166896)"><svg width="176.019" height="191.558" viewBox="0 0 176.019 191.558"><g><svg width="176.019" height="191.558" viewBox="0 0 176.019 191.558"><g><svg width="176.019" height="191.558" viewBox="0 0 176.019 191.558"><g id="SvgjsG5779"><svg id="SvgjsSvg5778" width="176.019" height="191.558" viewBox="0 0 176.019 191.558"><g><svg width="176.019" height="191.558" viewBox="0 0 176.019 191.558"><g transform="matrix(1,0,0,1,0,0)"><svg width="176.019" height="191.558" data-palette-color="#000000" viewBox="1.05 -36.2 33.45 36.4"><path id="SvgjsPath5777" fill="#000" d="M15.25 0.2L15.25 0.2Q13.8 0.25 12.35-0.05 10.9-0.35 9.9-1.3L9.9-1.3Q9.95-2.55 9.88-5 9.8-7.45 9.6-10.48 9.4-13.5 8.97-16.6 8.55-19.7 7.88-22.33 7.2-24.95 6.25-26.55 5.3-28.15 4-28.15L4-28.15Q2.85-28.15 1.4-26.9L1.4-26.9 1.05-27.2Q2.45-31.5 4.73-33.75 7-36 9.45-36L9.45-36Q11.6-36 13.05-34.5 14.5-33 15.38-30.48 16.25-27.95 16.63-24.83 17-21.7 17-18.45L17-18.45Q17-15.85 16.8-13.35 16.6-10.85 16.25-8.75L16.25-8.75Q18.9-12.1 20.7-16.07 22.5-20.05 23.45-23.98 24.4-27.9 24.4-31.05L24.4-31.05Q24.4-31.65 24.35-32.27 24.3-32.9 24.2-33.4L24.2-33.4Q25.25-34.75 26.9-35.48 28.55-36.2 30.2-36.2L30.2-36.2Q31.8-36.2 33-35.52 34.2-34.85 34.5-33.4L34.5-33.4Q33.85-28.65 31.93-23.9 30-19.15 27.25-14.73 24.5-10.3 21.38-6.5 18.25-2.7 15.25 0.2Z" class="wordmark-text-0" opacity="1" transform="matrix(1,0,0,1,0,0)"/></svg></g></svg></g></svg></g></svg></g></svg></g></svg></g></svg></g></svg><rect width="333.905" height="333.905" fill="#000" stroke="none" visibility="hidden"/></g></mask><linearGradient id="becc9664-c049-4e39-8d81-7029ed6bec15" x1=".054" x2=".941" y1=".5" y2=".5"><stop offset="0" stop-color="#864d25"/><stop offset=".498" stop-color="#f1c4b3"/><stop offset="1" stop-color="#864d25"/></linearGradient></svg><rect width="333.905" height="333.905" fill="none" stroke="none" visibility="hidden"/></g></svg></g></svg>